<?xml version="1.0" encoding="UTF-8"?>
<svg xmlns="http://www.w3.org/2000/svg" xmlns:xlink="http://www.w3.org/1999/xlink" width="272.126pt" height="90.709pt" viewBox="0 0 272.126 90.709" version="1.1">
<g id="surface1">
<path style=" stroke:none;fill-rule:nonzero;fill:rgb(50.196838%,70.196533%,87.843323%);fill-opacity:1;" d="M 201.652344 49.507812 L 203.707031 49.507812 C 205.667969 49.507812 206.726562 50.503906 206.726562 52.492188 C 206.726562 54.816406 205.546875 55.722656 203.464844 55.722656 L 201.652344 55.722656 Z M 197.308594 67.851562 L 201.652344 67.851562 L 201.652344 58.738281 L 203.976562 58.738281 C 205.726562 58.738281 206.480469 59.765625 206.542969 61.453125 L 206.664062 65.589844 C 206.691406 66.433594 206.785156 67.246094 207.207031 67.851562 L 211.914062 67.851562 L 211.914062 67.671875 C 211.101562 67.246094 210.980469 66.070312 210.949219 63.808594 C 210.890625 59.253906 210.4375 57.621094 207.480469 57.230469 L 207.480469 57.171875 C 209.921875 56.65625 211.070312 54.726562 211.070312 51.859375 C 211.070312 48.179688 208.894531 46.308594 205.335938 46.308594 L 197.308594 46.308594 L 197.308594 67.851562 "/>
<path style=" stroke:none;fill-rule:nonzero;fill:rgb(50.196838%,70.196533%,87.843323%);fill-opacity:1;" d="M 133.246094 46.308594 L 133.246094 61.335938 C 133.246094 67.097656 136.597656 68.273438 140.125 68.273438 C 143.65625 68.273438 147.007812 66.828125 147.007812 61.335938 L 147.007812 46.308594 L 142.660156 46.308594 L 142.660156 61.335938 C 142.660156 63.476562 142.148438 65.074219 140.125 65.074219 C 138.105469 65.074219 137.59375 63.476562 137.59375 61.335938 L 137.59375 46.308594 L 133.246094 46.308594 "/>
<path style=" stroke:none;fill-rule:nonzero;fill:rgb(50.196838%,70.196533%,87.843323%);fill-opacity:1;" d="M 148.070312 46.308594 L 148.070312 67.851562 L 152.054688 67.851562 L 152.054688 52.765625 L 152.113281 52.765625 L 157.425781 67.851562 L 162.371094 67.851562 L 162.371094 46.308594 L 158.390625 46.308594 L 158.390625 61.0625 L 158.328125 61.0625 L 153.078125 46.308594 L 148.070312 46.308594 "/>
<path style=" stroke:none;fill-rule:nonzero;fill:rgb(50.196838%,70.196533%,87.843323%);fill-opacity:1;" d="M 163.488281 67.851562 L 167.835938 67.851562 L 167.835938 46.308594 L 163.488281 46.308594 Z M 163.488281 67.851562 "/>
<path style=" stroke:none;fill-rule:nonzero;fill:rgb(50.196838%,70.196533%,87.843323%);fill-opacity:1;" d="M 168.132812 46.308594 L 173.082031 67.851562 L 178.664062 67.851562 L 183.613281 46.308594 L 179.117188 46.308594 L 175.917969 62.238281 L 175.828125 62.238281 L 172.78125 46.308594 L 168.132812 46.308594 "/>
<path style=" stroke:none;fill-rule:nonzero;fill:rgb(50.196838%,70.196533%,87.843323%);fill-opacity:1;" d="M 184 46.308594 L 184 67.851562 L 196.34375 67.851562 L 196.34375 64.292969 L 188.347656 64.292969 L 188.347656 58.496094 L 195.589844 58.496094 L 195.589844 54.9375 L 188.347656 54.9375 L 188.347656 49.867188 L 196.039062 49.867188 L 196.039062 46.308594 L 184 46.308594 "/>
<path style=" stroke:none;fill-rule:nonzero;fill:rgb(50.196838%,70.196533%,87.843323%);fill-opacity:1;" d="M 211.429688 61.121094 L 211.429688 61.996094 C 211.429688 65.980469 213.359375 68.273438 218.28125 68.273438 C 222.988281 68.273438 225.761719 66.222656 225.761719 61.664062 C 225.761719 59.039062 224.917969 57.382812 221.660156 55.964844 L 218.308594 54.515625 C 216.46875 53.730469 216.078125 52.914062 216.078125 51.589844 C 216.078125 50.320312 216.589844 49.082031 218.550781 49.082031 C 220.210938 49.082031 220.90625 50.261719 220.90625 52.28125 L 225.070312 52.28125 L 225.070312 51.679688 C 225.070312 47.542969 222.261719 45.886719 218.398438 45.886719 C 214.296875 45.886719 211.730469 48.027344 211.730469 52.222656 C 211.730469 55.8125 213.511719 57.410156 217.375 58.738281 C 220.242188 59.734375 221.238281 60.460938 221.238281 62.421875 C 221.238281 64.230469 219.96875 65.074219 218.640625 65.074219 C 216.347656 65.074219 215.773438 63.777344 215.773438 61.757812 L 215.773438 61.121094 L 211.429688 61.121094 "/>
<path style=" stroke:none;fill-rule:nonzero;fill:rgb(50.196838%,70.196533%,87.843323%);fill-opacity:1;" d="M 226.332031 67.851562 L 230.675781 67.851562 L 230.675781 46.308594 L 226.332031 46.308594 Z M 226.332031 67.851562 "/>
<path style=" stroke:none;fill-rule:nonzero;fill:rgb(50.196838%,70.196533%,87.843323%);fill-opacity:1;" d="M 253.246094 46.308594 L 250.226562 54.636719 L 250.167969 54.636719 L 247.332031 46.308594 L 231.246094 46.308594 L 231.246094 49.867188 L 235.953125 49.867188 L 235.953125 67.851562 L 240.300781 67.851562 L 240.300781 49.867188 L 243.964844 49.867188 L 248.023438 59.371094 L 248.023438 67.851562 L 252.371094 67.851562 L 252.371094 59.371094 L 257.953125 46.308594 L 253.246094 46.308594 "/>
<path style=" stroke:none;fill-rule:nonzero;fill:rgb(10.588074%,36.077881%,66.667175%);fill-opacity:1;" d="M 95.074219 44.347656 L 87.875 44.347656 L 87.875 22.707031 L 99.679688 22.707031 C 102.882812 22.703125 105.644531 24.777344 106.546875 27.527344 C 107.378906 30.070312 106.667969 32.839844 104.785156 34.808594 C 105.035156 35.484375 105.277344 36.015625 105.511719 36.625 C 106.035156 37.828125 106.511719 39.035156 107.035156 40.226562 L 108.746094 44.347656 L 101.445312 44.347656 C 101.445312 44.351562 101.390625 44.171875 101.332031 44.101562 C 101.039062 43.460938 100.777344 42.777344 100.488281 42.140625 L 98.734375 37.976562 C 98.035156 36.289062 97.339844 34.699219 96.644531 33.015625 C 97.511719 32.992188 98.160156 33.15625 99 32.769531 C 99.589844 32.480469 100.484375 31.757812 100.507812 30.375 C 100.484375 29.691406 100.296875 29.171875 99.84375 28.632812 C 99.386719 28.128906 98.730469 27.757812 97.871094 27.746094 C 97.871094 27.746094 95.074219 27.746094 95.074219 27.746094 L 95.074219 44.347656 "/>
<path style=" stroke:none;fill-rule:nonzero;fill:rgb(10.588074%,36.077881%,66.667175%);fill-opacity:1;" d="M 170.28125 22.707031 L 170.28125 44.347656 L 163.082031 44.347656 L 163.082031 35.523438 L 158.039062 35.523438 L 158.039062 44.347656 C 156.734375 44.347656 155.324219 44.332031 154.019531 44.347656 L 150.839844 44.347656 L 150.839844 27.714844 L 145.804688 27.714844 L 145.804688 44.347656 L 138.605469 44.347656 L 138.605469 27.714844 L 133.523438 27.714844 L 133.523438 44.347656 L 126.105469 44.347656 C 124.816406 41.226562 123.453125 38.078125 122.1875 34.972656 C 122.042969 34.316406 121.898438 33.664062 121.710938 33.027344 L 121.710938 44.347656 L 114.277344 44.347656 C 112.804688 40.921875 111.390625 37.566406 109.921875 34.089844 C 109.410156 32.886719 108.996094 31.90625 108.46875 30.652344 L 108.394531 30.488281 L 107.253906 27.804688 L 105.613281 23.96875 C 105.472656 23.535156 105.238281 23.140625 105.09375 22.707031 L 112.507812 22.707031 C 114.03125 26.40625 115.570312 30.066406 117.167969 33.707031 L 117.210938 33.796875 C 117.152344 33.375 117.019531 32.835938 116.949219 32.429688 L 116.949219 25.972656 C 116.964844 24.941406 116.949219 23.765625 116.949219 22.707031 L 124.378906 22.707031 C 124.472656 22.941406 124.523438 23.070312 124.597656 23.257812 C 125.46875 25.304688 126.296875 27.335938 127.167969 29.367188 L 129.113281 33.796875 C 129.066406 33.328125 128.96875 32.882812 128.90625 32.429688 L 128.90625 22.707031 L 158.039062 22.707031 L 158.039062 30.515625 L 163.082031 30.515625 L 163.082031 22.707031 L 170.28125 22.707031 "/>
<path style=" stroke:none;fill-rule:nonzero;fill:rgb(50.196838%,70.196533%,87.843323%);fill-opacity:1;" d="M 195.984375 22.703125 L 190.589844 22.703125 L 186.074219 39.761719 L 181.558594 22.703125 L 176.160156 22.703125 L 170.433594 44.347656 L 174.980469 44.347656 L 175.980469 39.769531 L 181.738281 39.769531 L 182.738281 44.347656 L 189.40625 44.347656 L 190.40625 39.769531 L 196.167969 39.769531 L 197.167969 44.347656 L 201.714844 44.347656 Z M 176.738281 36.191406 L 178.828125 26.464844 L 178.890625 26.464844 L 180.980469 36.191406 Z M 191.164062 36.191406 L 193.257812 26.464844 L 193.316406 26.464844 L 195.410156 36.191406 L 191.164062 36.191406 "/>
<path style=" stroke:none;fill-rule:nonzero;fill:rgb(50.196838%,70.196533%,87.843323%);fill-opacity:1;" d="M 214.714844 30.089844 C 214.714844 26.949219 214.261719 22.394531 208.046875 22.394531 C 201.527344 22.394531 200.710938 27.039062 200.710938 33.589844 C 200.710938 40.136719 201.527344 44.785156 208.046875 44.785156 C 213.746094 44.785156 214.894531 40.769531 214.894531 36.125 L 210.550781 36.125 C 210.550781 40.769531 209.402344 41.585938 207.835938 41.585938 C 205.964844 41.585938 205.058594 40.410156 205.058594 33.890625 C 205.058594 27.796875 205.570312 25.59375 207.773438 25.59375 C 209.734375 25.59375 210.367188 26.949219 210.367188 30.089844 L 214.714844 30.089844 "/>
<path style=" stroke:none;fill-rule:nonzero;fill:rgb(50.196838%,70.196533%,87.843323%);fill-opacity:1;" d="M 215.753906 44.347656 L 220.117188 44.347656 L 220.117188 34.738281 L 225.210938 34.738281 L 225.210938 44.347656 L 229.574219 44.347656 L 229.574219 22.707031 L 225.210938 22.707031 L 225.210938 30.980469 L 220.117188 30.980469 L 220.117188 22.707031 L 215.753906 22.707031 L 215.753906 44.347656 "/>
<path style=" stroke:none;fill-rule:nonzero;fill:rgb(50.196838%,70.196533%,87.843323%);fill-opacity:1;" d="M 230.519531 22.703125 L 230.519531 44.347656 L 242.921875 44.347656 L 242.921875 40.769531 L 234.886719 40.769531 L 234.886719 34.949219 L 242.160156 34.949219 L 242.160156 31.371094 L 234.886719 31.371094 L 234.886719 26.277344 L 242.617188 26.277344 L 242.617188 22.703125 L 230.519531 22.703125 "/>
<path style=" stroke:none;fill-rule:nonzero;fill:rgb(50.196838%,70.196533%,87.843323%);fill-opacity:1;" d="M 243.566406 22.707031 L 243.566406 44.347656 L 247.570312 44.347656 L 247.570312 29.191406 L 247.628906 29.191406 L 252.964844 44.347656 L 257.933594 44.347656 L 257.933594 22.707031 L 253.933594 22.707031 L 253.933594 37.527344 L 253.871094 37.527344 L 248.597656 22.707031 L 243.566406 22.707031 "/>
<path style=" stroke:none;fill-rule:nonzero;fill:rgb(10.588074%,36.077881%,66.667175%);fill-opacity:1;" d="M 73.199219 68.03125 L 74.199219 68.03125 L 74.199219 22.675781 L 73.199219 22.675781 Z M 73.199219 68.03125 "/>
<path style=" stroke:none;fill-rule:nonzero;fill:rgb(10.588074%,36.077881%,66.667175%);fill-opacity:1;" d="M 59.527344 62.078125 L 59.527344 28.628906 C 59.527344 28.628906 59.527344 22.679688 53.574219 22.679688 L 20.125 22.679688 C 20.125 22.679688 14.175781 22.679688 14.175781 28.628906 L 14.175781 62.078125 C 14.175781 62.078125 14.175781 68.03125 20.125 68.03125 L 53.574219 68.03125 C 53.574219 68.03125 59.527344 68.03125 59.527344 62.078125 M 43.96875 58.761719 L 46.425781 58.761719 C 46.425781 59.121094 46.496094 59.429688 46.636719 59.679688 C 46.777344 59.929688 46.964844 60.132812 47.195312 60.285156 C 47.425781 60.441406 47.699219 60.558594 48.011719 60.632812 C 48.324219 60.707031 48.648438 60.742188 48.984375 60.742188 C 49.210938 60.742188 49.453125 60.726562 49.710938 60.691406 C 49.972656 60.65625 50.214844 60.589844 50.441406 60.488281 C 50.664062 60.390625 50.855469 60.253906 51.007812 60.074219 C 51.15625 59.902344 51.230469 59.679688 51.230469 59.40625 C 51.230469 59.117188 51.132812 58.882812 50.933594 58.703125 C 50.734375 58.523438 50.472656 58.371094 50.148438 58.253906 C 49.824219 58.132812 49.457031 58.027344 49.046875 57.9375 C 48.636719 57.847656 48.222656 57.746094 47.804688 57.636719 C 47.371094 57.535156 46.949219 57.414062 46.539062 57.269531 C 46.128906 57.125 45.765625 56.9375 45.441406 56.707031 C 45.117188 56.476562 44.855469 56.1875 44.65625 55.84375 C 44.457031 55.496094 44.355469 55.078125 44.355469 54.589844 C 44.355469 54.039062 44.484375 53.5625 44.738281 53.15625 C 44.988281 52.75 45.320312 52.414062 45.730469 52.144531 C 46.140625 51.871094 46.605469 51.671875 47.121094 51.542969 C 47.640625 51.414062 48.15625 51.347656 48.675781 51.347656 C 49.28125 51.347656 49.859375 51.410156 50.414062 51.535156 C 50.972656 51.660156 51.464844 51.863281 51.894531 52.144531 C 52.328125 52.425781 52.671875 52.78125 52.921875 53.21875 C 53.175781 53.652344 53.304688 54.179688 53.304688 54.800781 L 50.84375 54.800781 C 50.820312 54.480469 50.75 54.214844 50.625 54.003906 C 50.503906 53.796875 50.335938 53.628906 50.132812 53.507812 C 49.925781 53.390625 49.691406 53.304688 49.429688 53.253906 C 49.164062 53.203125 48.875 53.179688 48.5625 53.179688 C 48.359375 53.179688 48.152344 53.199219 47.949219 53.238281 C 47.742188 53.277344 47.558594 53.347656 47.390625 53.449219 C 47.222656 53.550781 47.085938 53.675781 46.976562 53.824219 C 46.871094 53.976562 46.816406 54.164062 46.816406 54.394531 C 46.816406 54.605469 46.859375 54.773438 46.945312 54.90625 C 47.03125 55.035156 47.199219 55.15625 47.453125 55.265625 C 47.707031 55.375 48.058594 55.484375 48.507812 55.597656 C 48.953125 55.707031 49.539062 55.847656 50.261719 56.015625 C 50.476562 56.054688 50.777344 56.128906 51.160156 56.234375 C 51.542969 56.339844 51.921875 56.507812 52.300781 56.734375 C 52.675781 56.96875 53.003906 57.273438 53.277344 57.660156 C 53.554688 58.046875 53.691406 58.539062 53.691406 59.136719 C 53.691406 59.628906 53.589844 60.085938 53.382812 60.503906 C 53.179688 60.925781 52.875 61.285156 52.46875 61.59375 C 52.066406 61.898438 51.5625 62.136719 50.964844 62.304688 C 50.367188 62.476562 49.671875 62.558594 48.886719 62.558594 C 48.25 62.558594 47.632812 62.488281 47.035156 62.34375 C 46.433594 62.199219 45.90625 61.96875 45.449219 61.660156 C 44.988281 61.351562 44.625 60.953125 44.355469 60.472656 C 44.085938 59.992188 43.957031 59.421875 43.96875 58.761719 M 31.808594 51.335938 L 34.355469 51.335938 L 36.773438 55.777344 L 39.179688 51.335938 L 41.710938 51.335938 L 37.875 58.269531 L 37.875 62.589844 L 35.601562 62.589844 L 35.601562 58.207031 Z M 19.839844 58.761719 L 22.308594 58.761719 C 22.308594 59.121094 22.378906 59.429688 22.519531 59.679688 C 22.65625 59.929688 22.84375 60.132812 23.078125 60.285156 C 23.308594 60.441406 23.582031 60.558594 23.898438 60.632812 C 24.210938 60.707031 24.535156 60.742188 24.871094 60.742188 C 25.097656 60.742188 25.339844 60.726562 25.601562 60.691406 C 25.859375 60.65625 26.101562 60.589844 26.328125 60.488281 C 26.558594 60.390625 26.746094 60.253906 26.898438 60.074219 C 27.050781 59.902344 27.125 59.679688 27.125 59.40625 C 27.125 59.117188 27.023438 58.882812 26.824219 58.703125 C 26.625 58.523438 26.363281 58.371094 26.039062 58.253906 C 25.714844 58.132812 25.347656 58.027344 24.933594 57.9375 C 24.523438 57.847656 24.109375 57.746094 23.6875 57.636719 C 23.253906 57.535156 22.832031 57.414062 22.421875 57.269531 C 22.007812 57.125 21.640625 56.9375 21.316406 56.707031 C 20.992188 56.476562 20.730469 56.1875 20.53125 55.84375 C 20.328125 55.496094 20.230469 55.078125 20.230469 54.589844 C 20.230469 54.039062 20.355469 53.5625 20.609375 53.15625 C 20.863281 52.75 21.199219 52.414062 21.609375 52.144531 C 22.019531 51.871094 22.484375 51.671875 23.003906 51.542969 C 23.523438 51.414062 24.042969 51.347656 24.5625 51.347656 C 25.167969 51.347656 25.75 51.410156 26.304688 51.535156 C 26.863281 51.660156 27.359375 51.863281 27.789062 52.144531 C 28.222656 52.425781 28.566406 52.78125 28.820312 53.21875 C 29.074219 53.652344 29.203125 54.179688 29.203125 54.800781 L 26.734375 54.800781 C 26.714844 54.480469 26.640625 54.214844 26.515625 54.003906 C 26.390625 53.796875 26.226562 53.628906 26.023438 53.507812 C 25.816406 53.390625 25.582031 53.304688 25.316406 53.253906 C 25.050781 53.203125 24.761719 53.179688 24.449219 53.179688 C 24.242188 53.179688 24.035156 53.199219 23.832031 53.238281 C 23.625 53.277344 23.441406 53.347656 23.273438 53.449219 C 23.105469 53.550781 22.964844 53.675781 22.859375 53.824219 C 22.75 53.976562 22.695312 54.164062 22.695312 54.394531 C 22.695312 54.605469 22.738281 54.773438 22.824219 54.90625 C 22.910156 55.035156 23.082031 55.15625 23.335938 55.265625 C 23.589844 55.375 23.941406 55.484375 24.390625 55.597656 C 24.839844 55.707031 25.425781 55.847656 26.152344 56.015625 C 26.367188 56.054688 26.667969 56.128906 27.050781 56.234375 C 27.4375 56.339844 27.816406 56.507812 28.195312 56.734375 C 28.574219 56.96875 28.902344 57.273438 29.179688 57.660156 C 29.453125 58.046875 29.589844 58.539062 29.589844 59.136719 C 29.589844 59.628906 29.488281 60.085938 29.28125 60.503906 C 29.078125 60.925781 28.773438 61.285156 28.367188 61.59375 C 27.960938 61.898438 27.457031 62.136719 26.859375 62.304688 C 26.257812 62.476562 25.5625 62.558594 24.773438 62.558594 C 24.136719 62.558594 23.515625 62.488281 22.914062 62.34375 C 22.316406 62.199219 21.785156 61.96875 21.324219 61.660156 C 20.863281 61.351562 20.5 60.953125 20.230469 60.472656 C 19.960938 59.992188 19.828125 59.421875 19.839844 58.761719 M 57.859375 45.4375 L 15.84375 45.4375 L 15.84375 28.867188 C 15.84375 24.328125 20.378906 24.328125 20.378906 24.328125 L 53.324219 24.328125 C 57.859375 24.328125 57.859375 28.867188 57.859375 28.867188 Z M 20.171875 31.929688 C 19.933594 32.625 19.816406 33.378906 19.816406 34.191406 C 19.816406 34.984375 19.933594 35.722656 20.171875 36.410156 C 20.40625 37.09375 20.746094 37.691406 21.191406 38.199219 C 21.632812 38.707031 22.175781 39.105469 22.820312 39.394531 C 23.464844 39.683594 24.191406 39.828125 25 39.828125 C 25.648438 39.828125 26.246094 39.726562 26.785156 39.523438 C 27.328125 39.320312 27.800781 39.027344 28.203125 38.640625 C 28.605469 38.253906 28.933594 37.785156 29.179688 37.238281 C 29.425781 36.691406 29.578125 36.074219 29.636719 35.394531 L 27.390625 35.394531 C 27.304688 36.128906 27.058594 36.714844 26.660156 37.164062 C 26.261719 37.609375 25.707031 37.832031 25 37.832031 C 24.476562 37.832031 24.035156 37.730469 23.671875 37.519531 C 23.304688 37.3125 23.011719 37.035156 22.785156 36.691406 C 22.558594 36.34375 22.394531 35.957031 22.289062 35.523438 C 22.1875 35.09375 22.136719 34.648438 22.136719 34.191406 C 22.136719 33.714844 22.1875 33.253906 22.289062 32.804688 C 22.394531 32.359375 22.558594 31.960938 22.785156 31.609375 C 23.011719 31.261719 23.304688 30.980469 23.671875 30.773438 C 24.035156 30.5625 24.476562 30.460938 25 30.460938 C 25.285156 30.460938 25.558594 30.507812 25.820312 30.605469 C 26.078125 30.699219 26.3125 30.835938 26.519531 31.007812 C 26.726562 31.179688 26.898438 31.382812 27.035156 31.609375 C 27.175781 31.839844 27.265625 32.089844 27.304688 32.363281 L 29.546875 32.363281 C 29.480469 31.734375 29.3125 31.175781 29.046875 30.6875 C 28.78125 30.199219 28.441406 29.792969 28.035156 29.460938 C 27.625 29.132812 27.164062 28.882812 26.644531 28.707031 C 26.128906 28.535156 25.578125 28.449219 25 28.449219 C 24.191406 28.449219 23.464844 28.597656 22.820312 28.890625 C 22.175781 29.183594 21.632812 29.589844 21.191406 30.109375 C 20.746094 30.628906 20.40625 31.234375 20.171875 31.929688 M 32.199219 31.925781 C 31.976562 32.621094 31.863281 33.375 31.863281 34.183594 C 31.863281 34.976562 31.976562 35.714844 32.199219 36.398438 C 32.421875 37.085938 32.742188 37.679688 33.164062 38.1875 C 33.582031 38.695312 34.097656 39.09375 34.707031 39.382812 C 35.320312 39.671875 36.007812 39.816406 36.769531 39.816406 C 37.542969 39.816406 38.234375 39.671875 38.839844 39.382812 C 39.445312 39.09375 39.957031 38.695312 40.378906 38.1875 C 40.796875 37.679688 41.117188 37.085938 41.34375 36.398438 C 41.566406 35.714844 41.675781 34.976562 41.675781 34.183594 C 41.675781 33.375 41.566406 32.621094 41.34375 31.925781 C 41.117188 31.230469 40.796875 30.625 40.378906 30.105469 C 39.957031 29.589844 39.445312 29.183594 38.839844 28.890625 C 38.234375 28.597656 37.542969 28.449219 36.769531 28.449219 C 36.007812 28.449219 35.320312 28.597656 34.707031 28.890625 C 34.097656 29.183594 33.582031 29.589844 33.164062 30.105469 C 32.742188 30.625 32.421875 31.230469 32.199219 31.925781 M 34.058594 34.183594 C 34.058594 33.707031 34.105469 33.246094 34.203125 32.800781 C 34.304688 32.355469 34.460938 31.957031 34.671875 31.605469 C 34.886719 31.257812 35.167969 30.976562 35.511719 30.769531 C 35.855469 30.5625 36.277344 30.457031 36.769531 30.457031 C 37.265625 30.457031 37.683594 30.5625 38.027344 30.769531 C 38.371094 30.976562 38.652344 31.257812 38.867188 31.605469 C 39.082031 31.957031 39.238281 32.355469 39.335938 32.800781 C 39.433594 33.246094 39.484375 33.707031 39.484375 34.183594 C 39.484375 34.640625 39.433594 35.085938 39.335938 35.515625 C 39.238281 35.949219 39.082031 36.335938 38.867188 36.679688 C 38.652344 37.027344 38.371094 37.300781 38.027344 37.511719 C 37.683594 37.71875 37.265625 37.820312 36.769531 37.820312 C 36.277344 37.820312 35.855469 37.71875 35.511719 37.511719 C 35.167969 37.300781 34.886719 37.027344 34.671875 36.679688 C 34.460938 36.335938 34.304688 35.949219 34.203125 35.515625 C 34.105469 35.085938 34.058594 34.640625 34.058594 34.183594 M 46.726562 28.457031 L 43.898438 28.457031 L 43.898438 39.828125 L 45.777344 39.828125 L 45.777344 31.851562 L 45.804688 31.851562 L 48.042969 39.828125 L 49.589844 39.828125 L 51.824219 31.769531 L 51.851562 31.769531 L 51.851562 39.828125 L 53.730469 39.828125 L 53.730469 28.457031 L 50.90625 28.457031 L 48.886719 36.277344 L 48.859375 36.277344 L 46.726562 28.457031 "/>
</g>
</svg>
